<?xml version="1.0" standalone="no"?>
<!DOCTYPE svg PUBLIC "-//W3C//DTD SVG 20010904//EN"
 "http://www.w3.org/TR/2001/REC-SVG-20010904/DTD/svg10.dtd">
<svg version="1.0" xmlns="http://www.w3.org/2000/svg"
 width="538.000000pt" height="538.000000pt" viewBox="0 0 538.000000 538.000000"
 preserveAspectRatio="xMidYMid meet">
<metadata>
Created by potrace 1.11, written by Peter Selinger 2001-2013
</metadata>
<g transform="translate(0.000000,538.000000) scale(0.100000,-0.100000)"
fill="#000000" stroke="none">
<path d="M5 2695 l0 -2685 25 -1 c169 -4 5331 0 5338 5 5 3 9 1023 9 2686 l0
2680 -2686 0 -2686 0 0 -2685z m5256 2566 c1 -3 2 -1031 3 -2283 l1 -2278
-2572 0 c-2051 0 -2573 3 -2574 13 0 6 -1 1032 -2 2280 -1 1504 1 2268 8 2271
18 6 5135 4 5136 -3z"/>
<path d="M3924 4929 c-192 -24 -304 -190 -305 -454 0 -135 21 -238 64 -306 75
-122 166 -172 306 -170 119 2 214 46 275 129 32 45 68 132 80 198 10 50 8 237
-3 289 -46 229 -195 341 -417 314z m171 -93 c110 -46 166 -167 169 -366 5
-254 -94 -391 -280 -391 -174 0 -269 117 -277 342 -8 199 48 355 145 405 62
32 178 37 243 10z"/>
<path d="M560 4900 c0 -6 10 -14 23 -19 35 -14 65 -52 77 -102 8 -31 11 -141
8 -340 -3 -329 -7 -348 -74 -390 -45 -28 -34 -40 29 -35 29 3 69 5 90 5 l37 1
-2 442 -3 442 -92 4 c-62 2 -93 -1 -93 -8z"/>
<path d="M807 4898 c-7 -4 -10 -141 -10 -437 0 -237 2 -433 4 -435 2 -2 123
-6 269 -8 l266 -4 32 101 c18 55 32 103 32 108 0 21 -30 2 -58 -38 -53 -76
-91 -89 -274 -93 -179 -5 -170 -9 -182 89 -12 100 -9 565 4 606 15 46 42 77
81 93 16 7 29 17 29 22 0 10 -175 7 -193 -4z"/>
<path d="M1610 4901 c0 -5 24 -15 54 -21 65 -13 125 -54 153 -105 10 -17 -2
-46 -76 -190 -49 -93 -116 -225 -150 -292 -68 -134 -123 -211 -171 -239 -55
-33 -38 -40 110 -40 100 0 140 3 140 11 0 7 -11 17 -25 23 -58 27 -55 83 14
221 l51 101 155 0 155 0 45 -97 c75 -160 81 -208 30 -231 -53 -24 -28 -34 72
-28 53 3 98 8 100 10 5 5 -7 30 -219 471 -79 165 -155 323 -167 352 -17 37
-30 52 -48 56 -49 9 -223 8 -223 -2z m313 -328 c25 -54 47 -104 49 -112 2 -11
-18 -14 -107 -15 -60 0 -109 3 -107 7 10 29 108 217 113 217 3 0 27 -44 52
-97z"/>
<path d="M1920 4900 c-6 -4 26 -83 81 -196 50 -104 103 -216 119 -249 75 -160
209 -435 212 -435 2 -1 42 -3 91 -6 99 -7 106 2 36 46 -23 14 -61 52 -86 85
-50 67 -224 415 -333 665 -18 41 -36 79 -40 83 -10 11 -66 15 -80 7z"/>
<path d="M2570 4904 c0 -3 18 -23 41 -43 60 -53 66 -91 64 -421 -2 -234 -4
-281 -19 -315 -19 -45 -53 -85 -73 -85 -7 0 -13 -7 -13 -16 0 -14 12 -15 86
-10 47 2 89 7 91 10 8 7 7 865 0 873 -9 8 -177 16 -177 7z"/>
<path d="M2819 4903 c-14 -3 -15 -51 -15 -439 1 -376 3 -436 16 -443 8 -5 74
-8 145 -7 150 1 191 16 238 84 37 52 48 95 48 170 -2 103 -41 171 -121 207
l-38 17 38 38 c60 60 72 162 31 254 -40 92 -109 128 -239 125 -48 -2 -94 -4
-103 -6z m216 -93 c43 -26 65 -75 65 -142 0 -98 -56 -153 -159 -157 l-59 -2 3
143 c1 79 6 151 10 160 13 32 86 32 140 -2z m63 -397 c64 -48 87 -128 62 -218
-13 -47 -66 -104 -98 -106 -9 -1 -30 -3 -47 -5 -16 -2 -47 1 -67 7 -49 13 -59
44 -64 215 l-4 136 96 -4 c74 -4 101 -9 122 -25z"/>
<path d="M3164 4858 c74 -65 94 -211 42 -305 -28 -48 -21 -53 28 -21 93 61
114 195 44 284 -21 26 -109 74 -137 74 -8 0 3 -15 23 -32z"/>
<path d="M3626 4811 c-44 -29 -85 -80 -111 -136 -30 -67 -38 -106 -40 -200 -3
-162 52 -283 164 -362 18 -12 16 -5 -9 49 -47 101 -61 170 -61 303 0 131 20
224 66 316 14 27 24 49 23 49 -2 0 -16 -9 -32 -19z"/>
<path d="M4332 4789 c50 -87 71 -181 70 -322 -1 -139 -17 -218 -63 -310 -35
-69 -19 -66 50 8 54 58 88 133 100 216 24 174 -25 339 -123 412 -56 42 -61 42
-34 -4z"/>
<path d="M3240 4450 c84 -117 83 -297 -2 -387 -28 -30 -6 -31 41 -2 72 44 111
113 111 197 0 72 -17 117 -62 158 -30 29 -87 64 -103 64 -4 0 3 -13 15 -30z"/>
<path d="M566 3938 c-2 -7 -4 -29 -4 -48 1 -39 -12 -256 -17 -298 -2 -15 -6
-54 -9 -88 -4 -33 -10 -85 -15 -114 -5 -29 -9 -94 -10 -145 l-2 -91 41 0 41 1
33 95 c72 208 156 329 268 386 42 21 79 32 203 60 17 3 262 8 546 10 l516 3
-2 -1112 c-2 -612 -6 -1128 -9 -1147 -4 -19 -12 -62 -17 -95 -43 -255 -165
-394 -406 -461 -50 -14 -58 -19 -60 -41 l-1 -26 121 7 c67 4 149 9 182 12 89
7 256 13 370 13 l100 1 0 1525 0 1525 -30 0 c-16 0 -349 2 -740 5 -390 2 -748
6 -795 9 -229 14 -266 17 -283 22 -9 3 -19 0 -21 -8z"/>
<path d="M4527 3943 c-2 -1 -34 -4 -72 -8 -39 -3 -92 -8 -120 -11 -27 -3 -394
-7 -815 -9 -421 -3 -781 -5 -800 -5 l-35 0 0 -1519 c0 -836 2 -1522 5 -1524 3
-3 86 -8 185 -12 99 -4 198 -8 220 -10 22 -1 99 -6 170 -9 72 -4 145 -9 163
-10 28 -2 32 1 32 23 0 24 -8 28 -89 54 -219 69 -325 205 -387 497 -4 19 -9
547 -11 1173 l-4 1137 478 -4 c263 -2 493 -7 511 -10 17 -3 44 -8 60 -10 85
-12 184 -48 243 -88 92 -62 168 -204 192 -360 l13 -83 37 -1 c21 0 40 2 42 5
8 13 16 155 20 331 2 102 6 237 10 300 4 63 7 117 7 120 1 28 -5 35 -28 35
-14 0 -26 -1 -27 -2z"/>
<path d="M4158 3290 c4 -4 26 -12 50 -19 40 -11 46 -17 74 -78 30 -64 31 -66
24 -179 -6 -127 -2 -147 57 -238 27 -43 31 -56 28 -105 -2 -31 -4 -92 -5 -136
-1 -75 1 -82 32 -124 39 -53 43 -103 10 -138 -12 -13 -16 -23 -10 -23 6 0 21
10 32 23 18 18 20 30 16 67 -4 25 -6 56 -7 70 0 14 -6 48 -13 76 -14 54 -13
76 5 171 l13 63 -48 100 c-46 96 -48 103 -42 160 7 62 -7 140 -25 140 -6 0 -7
-5 -4 -11 4 -5 6 -55 6 -110 l-1 -101 44 -81 c48 -87 48 -93 27 -197 -9 -44
-10 -43 -7 19 4 86 -8 134 -47 190 -32 46 -32 46 -33 179 -2 119 -4 138 -26
182 -14 28 -23 50 -21 50 2 0 20 -12 38 -26 44 -33 64 -89 69 -192 4 -73 9
-93 45 -165 43 -86 51 -136 31 -207 -22 -84 -22 -121 -1 -144 23 -25 28 -53
17 -107 -9 -43 11 -67 41 -50 16 9 16 10 -4 11 -26 0 -27 9 -13 62 9 31 7 44
-10 77 -23 46 -24 75 -6 151 7 30 12 64 10 75 -10 74 -17 99 -49 172 -27 63
-35 94 -35 141 0 33 -3 74 -6 91 -8 37 -74 115 -118 138 -29 16 -154 36 -138
23z m286 -860 c5 -19 2 -16 -13 10 -11 19 -20 46 -20 60 0 22 2 20 13 -10 7
-19 16 -46 20 -60z"/>
<path d="M4006 3254 c-3 -9 -6 -22 -6 -29 0 -8 -13 -34 -30 -58 -17 -26 -28
-53 -25 -65 2 -12 -2 -25 -8 -29 -13 -9 -18 -34 -20 -100 -1 -24 -6 -44 -12
-44 -9 -1 -124 1 -300 5 -72 2 -98 -1 -185 -20 -46 -10 -70 -32 -70 -65 0 -98
121 -192 388 -299 51 -21 95 -40 98 -42 7 -8 -42 -110 -75 -156 -18 -23 -43
-47 -58 -53 -23 -9 -25 -13 -19 -51 7 -44 36 -92 66 -108 48 -26 134 2 161 52
18 33 39 128 28 128 -5 0 -9 -8 -9 -18 0 -31 -49 -118 -73 -131 -61 -33 -118
-9 -136 56 -8 28 -6 35 11 47 35 25 87 107 105 165 9 31 18 57 19 59 5 7 50
-22 81 -51 46 -43 51 -28 5 17 -42 43 -101 75 -257 136 -110 44 -227 115 -277
167 -28 29 -44 88 -30 109 23 36 244 50 469 29 55 -5 84 -3 123 10 l50 17 38
-30 c97 -78 110 -102 96 -184 -5 -31 -2 -43 19 -67 13 -16 27 -47 30 -69 4
-22 13 -52 21 -67 10 -20 12 -35 5 -52 -7 -18 -5 -34 6 -55 8 -18 12 -41 8
-56 -4 -17 -2 -23 6 -18 17 11 14 -7 -24 -116 -76 -217 -94 -341 -60 -412 10
-20 48 -63 86 -97 122 -108 163 -226 123 -359 -16 -53 -54 -122 -74 -135 -6
-4 -121 21 -257 55 -236 60 -250 62 -347 58 -76 -3 -113 -9 -150 -26 -66 -30
-54 -37 20 -12 108 38 195 30 444 -40 261 -73 299 -79 386 -55 62 17 67 17
103 0 27 -12 50 -15 72 -10 74 15 73 20 -6 27 -44 4 -91 9 -105 11 -14 2 -43
-2 -65 -8 -35 -10 -52 -11 -69 -6 -3 0 8 15 23 32 34 37 60 112 68 194 8 96
-36 191 -144 305 -18 19 -43 55 -54 79 -29 57 -22 142 26 345 39 165 43 217
19 241 -12 12 -15 26 -9 60 4 33 2 51 -9 67 -9 12 -16 41 -16 63 0 33 -5 45
-31 66 -28 23 -31 29 -24 60 l8 34 9 -32 c6 -22 23 -42 52 -62 43 -30 61 -55
51 -72 -3 -5 -8 -44 -12 -87 -6 -83 -2 -96 52 -171 31 -42 31 -40 0 -85 l-25
-36 30 15 c58 30 59 71 4 151 l-35 51 3 108 3 108 -30 21 c-58 42 -77 66 -71
89 3 12 9 32 12 43 4 16 -8 37 -50 83 -106 120 -125 178 -101 308 7 35 9 63 6
63 -12 0 -45 -126 -44 -172 0 -52 16 -84 99 -194 31 -41 53 -80 51 -86 -3 -8
-6 -6 -6 5 -1 10 -42 58 -92 107 -50 49 -88 94 -85 99 3 4 8 53 11 107 8 126
11 142 33 147 11 3 7 5 -9 6 -16 1 -29 -5 -33 -15z m-25 -179 c-9 -63 -8 -81
4 -104 14 -27 13 -29 -8 -35 -42 -11 -47 -7 -47 33 0 24 8 48 21 65 14 18 19
34 15 51 -6 22 12 80 21 71 3 -2 0 -38 -6 -81z"/>
<path d="M4113 3248 c-10 -17 -12 -166 -2 -201 4 -16 33 -61 62 -100 71 -93
87 -126 87 -179 0 -31 3 -39 10 -28 24 38 11 86 -49 176 -94 144 -96 147 -95
252 0 50 -1 92 -2 92 -2 0 -6 -6 -11 -12z"/>
<path d="M4177 3161 c-14 -54 9 -124 90 -276 21 -40 26 -62 25 -118 -1 -58 3
-75 25 -108 23 -35 25 -45 19 -101 -6 -58 -5 -61 9 -44 27 36 22 118 -10 166
-21 30 -23 43 -18 90 6 58 6 55 -103 261 -8 14 -17 53 -20 85 -7 67 -9 73 -17
45z"/>
<path d="M3570 2829 c55 -47 175 -89 393 -140 21 -5 66 -24 100 -42 85 -44 86
-44 53 -9 -16 17 -49 39 -72 49 -37 15 -44 22 -44 46 0 31 3 32 60 12 24 -8
45 -13 48 -10 7 7 6 7 -78 42 -68 28 -83 31 -165 28 -88 -4 -155 -12 -163 -20
-3 -2 -21 4 -41 14 -20 10 -54 26 -76 35 l-40 16 25 -21z m398 -53 c20 -6 23
-13 17 -34 -4 -15 -7 -28 -8 -29 -3 -2 -176 36 -219 49 l-43 13 45 5 c69 8
182 6 208 -4z"/>
<path d="M3734 2110 c-17 -37 -9 -75 30 -154 19 -40 42 -109 51 -156 17 -86
50 -187 68 -205 6 -7 8 -1 3 15 -3 14 -20 90 -37 170 -21 99 -40 163 -61 200
-16 30 -33 77 -36 105 -7 46 -8 47 -18 25z"/>
<path d="M4005 1632 c-56 -33 -264 -122 -277 -118 -27 9 -147 18 -278 21 -146
3 -296 -20 -355 -53 -62 -36 -86 -143 -43 -197 21 -27 184 -112 195 -102 2 3
-26 20 -63 39 -37 18 -82 47 -101 64 -28 27 -33 38 -33 79 0 40 5 52 33 79 26
26 43 34 89 39 31 4 83 14 115 22 67 17 146 21 258 11 44 -4 103 -8 132 -9 29
-1 51 -2 50 -3 -1 0 -55 -29 -120 -63 -194 -101 -230 -123 -279 -172 -72 -72
-86 -159 -34 -208 72 -68 324 -77 701 -23 64 9 235 9 345 0 l85 -7 -55 15
c-95 27 -236 27 -455 1 -341 -40 -563 -26 -614 39 -45 57 -19 124 76 199 67
52 364 205 503 259 55 21 109 49 128 66 45 44 45 50 -3 22z"/>
<path d="M3273 1433 c-24 -2 -43 -9 -43 -15 0 -7 21 -8 68 -3 37 4 96 6 130 5
37 0 61 3 58 8 -6 9 -134 12 -213 5z"/>
<path d="M4674 1202 c3 -6 19 -13 34 -17 15 -3 40 -16 55 -29 l28 -24 -22 -16
c-28 -19 -16 -35 12 -18 11 7 24 10 30 6 15 -9 -10 -34 -34 -34 -16 0 -18 -3
-10 -11 9 -9 18 -8 38 5 26 17 45 14 45 -8 0 -30 -50 -37 -204 -30 -122 5
-149 4 -139 -6 9 -9 56 -13 166 -14 139 -1 157 1 176 18 30 27 27 41 -19 88
-22 23 -40 45 -40 49 0 9 -56 35 -94 45 -20 5 -27 3 -22 -4z"/>
</g>
</svg>
